<?xml version="1.0" encoding="utf-8"?>
<!-- Generator: Adobe Illustrator 24.0.2, SVG Export Plug-In . SVG Version: 6.00 Build 0)  -->
<svg version="1.1" id="Calque_1" xmlns="http://www.w3.org/2000/svg" xmlns:xlink="http://www.w3.org/1999/xlink" x="0px" y="0px"
	 viewBox="0 0 841.89 595.28" style="enable-background:new 0 0 841.89 595.28;" xml:space="preserve">
<style type="text/css">
	.st0{fill:#FFFFFF;}
</style>
<g>
	<path class="st0" d="M242.8,219.48c-8.23-0.47-14.45,9.37-16.7,15.89c-1.86,5.34-3.24,16.75,4.89,17.93
		c8.22,1.18,14.72-8.95,17.06-15.24c0.59-1.6,1.15-3.81,1.42-6.15v-5.37C248.95,222.82,247.11,219.75,242.8,219.48z"/>
	<path class="st0" d="M251.86,195.47c-8.6,0.69-16.27,6.07-22.16,11.92c-6.62,6.56-11.73,14.56-15.33,23.06
		c-5.36,12.69-9.22,30.85-0.52,43.05c9.34,13.08,25.66,6.01,35.63-2.66v-13.27c-1.75,2.02-3.65,3.91-5.73,5.59
		c-5.19,4.18-12.61,7.87-19.39,5.17c-6.83-2.75-9.05-10.66-9.22-17.26c-0.18-7.68,1.98-15.39,5.35-22.3
		c3.39-6.91,8.15-13.43,14.38-18.17c5.54-4.21,13.72-7.67,20.31-3.6c0.64,0.39,1.21,0.84,1.75,1.31h13.31
		C267.45,200.62,261.77,194.67,251.86,195.47z"/>
	<path class="st0" d="M249.48,280.73c-9.31,7.15-21.42,12.27-32.17,6.34c-14.1-7.87-14.1-27.88-11.31-41.42
		c3.31-16.08,11.51-31.7,23.33-43.36c9.86-9.73,27.46-20.2,40.67-9.93c5.15,4,7.99,9.72,9.32,15.97h14.47
		c-0.4-3.45-1.08-6.85-2.14-10.17c-2.05-6.43-5.62-12.57-11.17-16.7c-6.21-4.62-14.1-5.82-21.66-4.46
		c-14.02,2.52-25.96,12.22-34.95,22.58c-9.85,11.33-17.21,24.8-21.69,39.01c-4.31,13.68-6.32,29.05-2.35,43.05
		c3.83,13.51,14.61,24.1,29.7,22.95c7.12-0.54,13.84-3.17,19.95-6.91V280.73z"/>
</g>
<path class="st0" d="M319.25,307.83h-11.21v-73.71h-11.1v69.09c0,4.53,1.65,8.37,4.89,11.57c3.26,3.19,7.2,4.8,11.81,4.8
	c4.61,0,8.55-1.61,11.81-4.8c3.26-3.2,4.89-7.04,4.89-11.57v-69.09h-11.09V307.83z M374.8,310.85v-35.11c0-2.94-0.45-5.17-1.36-6.63
	c-0.91-1.48-2.11-2.51-3.6-3.1c1.71-0.89,2.96-1.92,3.76-3.1c0.78-1.18,1.2-2.94,1.2-5.3v-33.28c0-3.04-1.08-5.61-3.24-7.72
	c-2.14-2.11-4.74-3.15-7.86-3.16v-0.01h-97.99v0.02c-2.86,0.12-5.3,1.18-7.31,3.15c-2.15,2.12-3.21,4.69-3.21,7.73v83.44
	c0,3.04,1.06,5.62,3.21,7.72c2.16,2.13,4.79,3.17,7.9,3.17h22.24v-10.84h-22.27v-36.27h16.7v-10.87h-16.7v-36.4h97.44v36.26h-11.2
	v-26.43h-11.07v84.55h11.07v-47.25h11.2v39.43c0,1.27,0.21,2.56,0.63,3.83c0.42,1.29,0.94,2.61,1.58,3.99h11.47
	c-0.48-0.89-1.02-2.04-1.65-3.47C375.11,313.77,374.8,312.33,374.8,310.85"/>
<path class="st0" d="M467.18,319.57h11.18V213.33h-11.18V319.57z M442.61,265.6l-2.23,26.78l-2.05-26.78l-4.96-52.27H422.1
	l13.02,106.24h10.67l13.04-106.24h-11.28L442.61,265.6z M512.12,261.02H500.8V224.4h11.32V261.02z M518.37,217.39
	c-3.29-3.24-7.28-4.83-11.91-4.83c-4.67,0-8.64,1.59-11.93,4.83c-3.27,3.22-4.93,7.1-4.93,11.66v90.53h11.2v-47.58h11.32v47.58
	h11.18v-90.53C523.3,224.49,521.66,220.61,518.37,217.39 M386.09,216.52c-2.18,2.12-3.26,4.73-3.26,7.81v84.22
	c0,3.07,1.08,5.67,3.26,7.81c2.18,2.12,4.82,3.2,7.96,3.2h22.46v-10.96h-22.5v-36.62h16.86v-10.97h-16.86v-36.73h22.5v-10.96h-22.46
	C390.92,213.33,388.27,214.39,386.09,216.52"/>
<path class="st0" d="M262.88,169.88c5.55-2.19,10.05-7.73,12.26-13c1.81-4.32,1.99-12-5.08-9.7c-5.75,1.87-10.47,7.67-12.79,12.96
	c-1.04,2.42-2.06,5.65-0.9,8.21C257.52,170.94,260.6,170.76,262.88,169.88"/>
<path class="st0" d="M293.07,174.54c7.37-2.14,13.79-8.78,16.6-15.64c1.2-2.94,2.07-6.92,0.1-9.76c-1.9-2.73-5.59-2.77-8.52-1.95
	c-7.16,2-13.37,8.3-16.37,14.8c-1.45,3.1-2.63,7.41-0.58,10.51C286.2,175.42,290.06,175.43,293.07,174.54"/>
<path class="st0" d="M335.27,178.41c-2.61-3.49-7.3-4.37-11.44-3.78c-8.97,1.27-17.2,8.28-20.69,16.33
	c-1.7,3.95-2.41,8.87-0.03,12.74c2.46,3.91,7.35,5.05,11.72,4.48c9.26-1.24,17.83-8.59,21.14-17
	C337.57,187.11,338.02,182.1,335.27,178.41"/>
<path class="st0" d="M241.95,314.19c-8.44-5.38-15.15,5.99-16.75,12.55c-1.81,7.32-1.44,18.63,5.77,23.26
	c8.4,5.38,15.11-5.87,16.73-12.42C249.57,330.26,249.22,318.82,241.95,314.19"/>
<path class="st0" d="M209.33,308.21c-6.72-5.07-12.11,7.79-13.12,12.21c-1.17,5.03-1.97,14.75,3.73,17.73
	c6.45,3.36,11.09-7.59,12.21-11.88C213.54,321.03,214.39,311.98,209.33,308.21"/>
<path class="st0" d="M193.93,283.59c-5.02-3.2-9.44,7.1-10.38,10.24c-1.1,3.6-2.77,11.87,1.65,14.23
	C192.78,312.1,201.05,288.1,193.93,283.59"/>
<path class="st0" d="M184.67,273.28c4.16,1.06,7.53-6.11,8.57-8.95c1.01-2.72,3.31-10.62-0.78-12.15c-4.37-1.59-8.02,6.64-9.02,9.51
	C182.55,264.29,180.47,272.2,184.67,273.28"/>
<path class="st0" d="M193.27,239.22c3.8,1.03,7.28-5.5,8.43-8.06c0.98-2.17,3.92-10.86-0.63-11.21
	C194.84,219.42,187.16,238.02,193.27,239.22"/>
<path class="st0" d="M210.59,208.78c4.14-0.91,7.1-6.02,8.58-9.52c0.88-2.06,3.29-10.22-1.57-9.56c-4,0.58-7.02,5.56-8.53,8.78
	C208.11,200.57,205.1,209.99,210.59,208.78"/>
<path class="st0" d="M233.83,184.19c4.51-1.53,7.91-6.41,9.78-10.47c1.22-2.7,3.41-11.4-2.67-9.69c-4.41,1.24-7.78,5.96-9.7,9.75
	C229.84,176.57,227.09,186.41,233.83,184.19"/>
</svg>
