<?xml version="1.0" encoding="UTF-8" standalone="no"?><!DOCTYPE svg PUBLIC "-//W3C//DTD SVG 1.1//EN" "http://www.w3.org/Graphics/SVG/1.1/DTD/svg11.dtd">
<svg height="100%" style="fill-rule:nonzero;clip-rule:evenodd;stroke-linecap:round;stroke-linejoin:round;" version="1.1" viewBox="0 0 1543.1 321.113" width="100%" xml:space="preserve" xmlns="http://www.w3.org/2000/svg" xmlns:vectornator="http://vectornator.io" xmlns:xlink="http://www.w3.org/1999/xlink">
<metadata>
<vectornator:setting key="IsTimeLapseWatermarkDisabled" value="false"/>
<vectornator:setting key="UndoHistoryDisabled" value="true"/>
<vectornator:setting key="VNDimensionsVisible" value="true"/>
<vectornator:setting key="VNSnapToGuides" value="true"/>
<vectornator:setting key="WDCMYKEnabledKey" value="false"/>
<vectornator:setting key="WDDisplayWhiteBackground" value="false"/>
<vectornator:setting key="WDDynamicGuides" value="false"/>
<vectornator:setting key="WDGuidesVisible" value="true"/>
<vectornator:setting key="WDIsolateActiveLayer" value="false"/>
<vectornator:setting key="WDOutlineMode" value="false"/>
<vectornator:setting key="WDRulersVisible" value="true"/>
<vectornator:setting key="WDSnapToEdges" value="false"/>
<vectornator:setting key="WDSnapToGrid" value="false"/>
<vectornator:setting key="WDSnapToPoints" value="false"/>
<vectornator:setting key="WDUnits" value="Points"/>
</metadata>
<defs/>
<g id="Untitled" vectornator:layerName="Untitled">
<g opacity="1">
<path d="M541.606 113.891C528.667 113.152 518.887 128.623 515.349 138.875C512.425 147.271 510.255 165.21 523.038 167.066C535.962 168.921 546.182 152.994 549.861 143.104C550.789 140.588 551.669 137.114 552.094 133.434L552.094 124.991C551.276 119.142 548.383 114.316 541.606 113.891Z" fill="#ffffff" opacity="1"/>
<path d="M555.851 76.1405C542.33 77.2254 530.27 85.6842 521.01 94.8821C510.601 105.196 502.567 117.775 496.906 131.139C488.479 151.091 482.41 179.644 496.089 198.826C510.774 219.391 536.434 208.275 552.109 194.643L552.109 173.779C549.358 176.955 546.37 179.927 543.1 182.568C534.94 189.14 523.274 194.942 512.614 190.697C501.875 186.373 498.384 173.936 498.117 163.559C497.834 151.484 501.23 139.362 506.529 128.498C511.859 117.633 519.343 107.382 529.138 99.9291C537.849 93.3098 550.71 87.8697 561.071 94.2689C562.078 94.8821 562.974 95.5896 563.823 96.3286L584.75 96.3286C580.363 84.2377 571.433 74.8826 555.851 76.1405Z" fill="#ffffff" opacity="1"/>
<path d="M552.109 210.193C537.471 221.435 518.431 229.485 501.529 220.162C479.36 207.788 479.36 176.326 483.746 155.038C488.951 129.755 501.843 105.196 520.428 86.8635C535.931 71.5652 563.603 55.1033 584.373 71.2507C592.47 77.5398 596.935 86.5333 599.026 96.3601L621.777 96.3601C621.148 90.9357 620.079 85.5899 618.412 80.3699C615.189 70.2602 609.576 60.6063 600.85 54.1128C591.086 46.8489 578.681 44.9621 566.794 47.1004C544.751 51.0626 525.978 66.3137 511.843 82.6026C496.356 100.417 484.784 121.595 477.74 143.937C470.964 165.446 467.803 189.612 474.045 211.624C480.067 232.866 497.017 249.516 520.742 247.708C531.937 246.859 542.503 242.724 552.109 236.844C552.109 236.844 552.109 210.193 552.109 210.193Z" fill="#ffffff" opacity="1"/>
</g>
<path d="M661.808 252.802L644.182 252.802L644.182 136.909L626.73 136.909L626.73 245.538C626.73 252.661 629.324 258.698 634.418 263.73C639.544 268.745 645.739 271.277 652.987 271.277C660.235 271.277 666.43 268.745 671.556 263.73C676.681 258.698 679.244 252.661 679.244 245.538L679.244 136.909L661.808 136.909L661.808 252.802ZM749.148 257.551L749.148 202.348C749.148 197.725 748.44 194.219 747.01 191.923C745.579 189.596 743.692 187.977 741.349 187.049C744.038 185.65 746.003 184.031 747.261 182.175C748.487 180.32 749.148 177.553 749.148 173.842L749.148 121.517C749.148 116.737 747.45 112.696 744.054 109.379C740.689 106.061 736.601 104.426 731.695 104.41L731.695 104.394L577.627 104.394L577.627 104.426C573.131 104.615 569.294 106.281 566.134 109.379C562.754 112.712 561.087 116.753 561.087 121.532L561.087 252.724C561.087 257.503 562.754 261.56 566.134 264.862C569.53 268.211 573.665 269.846 578.555 269.846L613.523 269.846L613.523 252.802L578.508 252.802L578.508 195.776L604.765 195.776L604.765 178.685L578.508 178.685L578.508 121.454L731.711 121.454L731.711 178.465L714.102 178.465L714.102 136.909L696.696 136.909L696.696 269.846L714.102 269.846L714.102 195.555L731.711 195.555L731.711 257.551C731.711 259.547 732.041 261.576 732.702 263.572C733.362 265.601 734.18 267.676 735.186 269.846L753.22 269.846C752.465 268.446 751.616 266.638 750.626 264.39C749.635 262.142 749.148 259.877 749.148 257.551" fill="#ffffff" opacity="1"/>
<path d="M894.395 271.261L911.973 271.261L911.973 104.221L894.395 104.221L894.395 271.261ZM855.764 186.405L852.258 228.51L849.035 186.405L841.236 104.221L823.517 104.221L843.988 271.261L860.764 271.261L881.267 104.221L863.531 104.221L855.764 186.405ZM965.054 179.204L947.255 179.204L947.255 121.627L965.054 121.627C965.054 121.627 965.054 179.204 965.054 179.204ZM974.881 110.605C969.708 105.511 963.434 103.011 956.155 103.011C948.812 103.011 942.57 105.511 937.397 110.605C932.256 115.668 929.646 121.768 929.646 128.938L929.646 271.277L947.256 271.277L947.256 196.467L965.054 196.467L965.054 271.277L982.632 271.277L982.632 128.938C982.632 121.768 980.053 115.668 974.881 110.605M766.899 109.237C763.471 112.57 761.773 116.674 761.773 121.517L761.773 253.934C761.773 258.761 763.471 262.849 766.899 266.214C770.326 269.547 774.477 271.245 779.414 271.245L814.728 271.245L814.728 254.013L779.351 254.013L779.351 196.436L805.86 196.436L805.86 179.188L779.351 179.188L779.351 121.438L814.728 121.438L814.728 104.206L779.414 104.206C774.493 104.221 770.326 105.888 766.899 109.237" fill="#ffffff" opacity="1"/>
<path d="M573.178 35.9058C581.904 32.4625 588.979 23.752 592.454 15.4661C595.3 8.67381 595.583-3.40132 584.467 0.21493C575.426 3.1551 568.005 12.2743 564.357 20.5917C562.722 24.3966 561.119 29.4751 562.942 33.5002C564.75 37.5724 569.593 37.2894 573.178 35.9058" fill="#ffffff" opacity="1"/>
<path d="M620.645 43.2326C632.233 39.8679 642.327 29.4279 646.745 18.6421C648.632 14.0196 650 7.76187 646.902 3.29659C643.915-0.995747 638.113-1.05864 633.506 0.230634C622.249 3.3752 612.485 13.2806 607.768 23.5004C605.488 28.3745 603.633 35.151 606.856 40.0251C609.844 44.6162 615.913 44.6319 620.645 43.2326" fill="#ffffff" opacity="1"/>
<path d="M686.995 49.3173C682.892 43.8301 675.518 42.4465 669.009 43.3741C654.905 45.3709 641.965 56.3926 636.478 69.0495C633.805 75.26 632.689 82.9956 636.431 89.0804C640.299 95.228 647.987 97.0204 654.858 96.1242C669.417 94.1746 682.892 82.6183 688.096 69.3954C690.612 62.9962 691.319 55.1191 686.995 49.3173" fill="#ffffff" opacity="1"/>
<path d="M540.27 262.802C527 254.343 516.45 272.22 513.934 282.534C511.088 294.043 511.67 311.826 523.006 319.105C536.214 327.564 546.764 309.876 549.311 299.578C552.251 288.069 551.701 270.082 540.27 262.802" fill="#ffffff" opacity="1"/>
<path d="M488.982 253.4C478.416 245.428 469.942 265.648 468.354 272.597C466.514 280.506 465.256 295.788 474.218 300.474C484.36 305.757 491.655 288.54 493.416 281.795C495.601 273.556 496.938 259.327 488.982 253.4" fill="#ffffff" opacity="1"/>
<path d="M464.769 214.69C456.876 209.659 449.927 225.853 448.449 230.79C446.719 236.45 444.093 249.453 451.043 253.164C462.961 259.516 475.964 221.781 464.769 214.69" fill="#ffffff" opacity="1"/>
<path d="M450.21 198.48C456.75 200.146 462.049 188.873 463.684 184.408C465.272 180.131 468.888 167.71 462.458 165.305C455.587 162.805 449.848 175.745 448.276 180.257C446.876 184.345 443.606 196.782 450.21 198.48" fill="#ffffff" opacity="1"/>
<path d="M463.731 144.928C469.706 146.547 475.178 136.28 476.986 132.255C478.526 128.843 483.149 115.18 475.995 114.63C466.2 113.797 454.125 143.041 463.731 144.928" fill="#ffffff" opacity="1"/>
<path d="M490.963 97.0676C497.472 95.6368 502.126 87.6024 504.453 82.0994C505.837 78.8605 509.626 66.0307 501.985 67.0684C495.696 67.9803 490.947 75.8103 488.573 80.873C487.064 84.1591 482.331 98.97 490.963 97.0676" fill="#ffffff" opacity="1"/>
<path d="M527.503 58.4051C534.594 55.9995 539.94 48.3268 542.88 41.9433C544.798 37.6982 548.242 24.0193 538.682 26.7079C531.748 28.6575 526.45 36.0787 523.431 42.0377C521.23 46.4243 516.906 61.8956 527.503 58.4051" fill="#ffffff" opacity="1"/>
</g>
</svg>
